<?xml version="1.0" encoding="UTF-8" standalone="no"?>
<!DOCTYPE svg PUBLIC "-//W3C//DTD SVG 1.1//EN" "http://www.w3.org/Graphics/SVG/1.1/DTD/svg11.dtd">
<svg version="1.1" xmlns="http://www.w3.org/2000/svg" xmlns:xlink="http://www.w3.org/1999/xlink" preserveAspectRatio="xMidYMid meet" viewBox="188.6159420289855 229.19565217391306 262.76811594202906 170.01449275362313" width="24.73" height="16"><defs><path d="M451.38 314.7C451.38 309.35 451.38 306.01 451.38 304.67C451.38 301.81 449.06 299.49 446.2 299.49C443.9 299.49 442.2 299.49 439.9 299.49C437.04 299.49 434.72 297.16 434.72 294.3C434.72 288.09 434.72 274.65 434.72 268.44C434.72 265.58 432.4 263.25 429.53 263.25C427.53 263.25 426.69 263.25 424.69 263.25C421.82 263.25 419.5 260.93 419.5 258.07C419.5 255.92 419.5 254.65 419.5 252.5C419.5 249.63 417.18 247.31 414.31 247.31C412.76 247.31 413.29 247.31 411.74 247.31C408.88 247.31 406.56 244.99 406.56 242.13C406.56 239.54 406.56 236.97 406.56 234.38C406.56 231.52 404.24 229.2 401.37 229.2C399.49 229.2 399.03 229.2 397.15 229.2C394.28 229.2 391.94 231.51 391.91 234.38C391.77 246.97 391.43 279.54 391.29 292.13C391.26 295 388.93 297.31 386.05 297.31C377.18 297.31 355 297.31 319.5 297.31" id="e2Y47qx2Tc"></path><path d="M451.38 313.7C451.38 319.05 451.38 322.4 451.38 323.73C451.38 326.6 449.06 328.92 446.2 328.92C443.9 328.92 442.2 328.92 439.9 328.92C437.04 328.92 434.72 331.24 434.72 334.11C434.72 340.32 434.72 353.76 434.72 359.97C434.72 362.83 432.4 365.15 429.53 365.15C427.53 365.15 426.69 365.15 424.69 365.15C421.82 365.15 419.5 367.47 419.5 370.34C419.5 372.49 419.5 373.76 419.5 375.91C419.5 378.77 417.18 381.09 414.31 381.09C412.76 381.09 413.29 381.09 411.74 381.09C408.88 381.09 406.56 383.42 406.56 386.28C406.56 388.87 406.56 391.44 406.56 394.02C406.56 396.89 404.24 399.21 401.37 399.21C399.49 399.21 399.03 399.21 397.15 399.21C394.28 399.21 391.94 396.9 391.91 394.02C391.77 381.44 391.43 348.87 391.29 336.28C391.26 333.41 388.93 331.09 386.05 331.09C377.18 331.09 355 331.09 319.5 331.09" id="a6QhNqsgAr"></path><path d="M188.62 314.7C188.62 309.35 188.62 306.01 188.62 304.67C188.62 301.81 190.94 299.49 193.8 299.49C196.1 299.49 197.8 299.49 200.1 299.49C202.96 299.49 205.28 297.16 205.28 294.3C205.28 288.09 205.28 274.65 205.28 268.44C205.28 265.58 207.6 263.25 210.47 263.25C212.47 263.25 213.31 263.25 215.31 263.25C218.18 263.25 220.5 260.93 220.5 258.07C220.5 255.92 220.5 254.65 220.5 252.5C220.5 249.63 222.82 247.31 225.69 247.31C227.24 247.31 226.71 247.31 228.26 247.31C231.12 247.31 233.44 244.99 233.44 242.13C233.44 239.54 233.44 236.97 233.44 234.38C233.44 231.52 235.76 229.2 238.63 229.2C240.51 229.2 240.97 229.2 242.85 229.2C245.72 229.2 248.06 231.51 248.09 234.38C248.23 246.97 248.57 279.54 248.71 292.13C248.74 295 251.07 297.31 253.95 297.31C262.82 297.31 285 297.31 320.5 297.31" id="b26Jgh7hsT"></path><path d="M188.62 313.7C188.62 319.05 188.62 322.4 188.62 323.73C188.62 326.6 190.94 328.92 193.8 328.92C196.1 328.92 197.8 328.92 200.1 328.92C202.96 328.92 205.28 331.24 205.28 334.11C205.28 340.32 205.28 353.76 205.28 359.97C205.28 362.83 207.6 365.15 210.47 365.15C212.47 365.15 213.31 365.15 215.31 365.15C218.18 365.15 220.5 367.47 220.5 370.34C220.5 372.49 220.5 373.76 220.5 375.91C220.5 378.77 222.82 381.09 225.69 381.09C227.24 381.09 226.71 381.09 228.26 381.09C231.12 381.09 233.44 383.42 233.44 386.28C233.44 388.87 233.44 391.44 233.44 394.02C233.44 396.89 235.76 399.21 238.63 399.21C240.51 399.21 240.97 399.21 242.85 399.21C245.72 399.21 248.06 396.9 248.09 394.02C248.23 381.44 248.57 348.87 248.71 336.28C248.74 333.41 251.07 331.09 253.95 331.09C262.82 331.09 285 331.09 320.5 331.09" id="aylPzgptt"></path></defs><g><g><g><g><use xlink:href="#e2Y47qx2Tc" opacity="1" fill-opacity="0" stroke="#000000" stroke-width="22" stroke-opacity="1"></use></g></g><g><g><use xlink:href="#a6QhNqsgAr" opacity="1" fill-opacity="0" stroke="#000000" stroke-width="22" stroke-opacity="1"></use></g></g><g><g><use xlink:href="#b26Jgh7hsT" opacity="1" fill-opacity="0" stroke="#000000" stroke-width="22" stroke-opacity="1"></use></g></g><g><g><use xlink:href="#aylPzgptt" opacity="1" fill-opacity="0" stroke="#000000" stroke-width="22" stroke-opacity="1"></use></g></g></g></g></svg>